<?xml version="1.0" encoding="UTF-8"?>
<svg id="Layer_1" data-name="Layer 1" xmlns="http://www.w3.org/2000/svg" viewBox="0 0 338.07 222.01">
  <defs>
    <style>
      .cls-1 {
        fill: #fff;
      }

      .cls-2 {
        fill: #be1e2d;
      }
    </style>
  </defs>
  <path class="cls-1" d="m177.45,72.31c-4.12-13.11-10.74-25-19.82-35.68-9.09-10.67-20.77-19.45-35.05-26.32C108.31,3.44,91.03,0,70.73,0H0v50.75h70.41c10.36,0,19.24,1.74,26.64,5.23,7.4,3.49,13.53,8.09,18.39,13.8,4.86,5.71,8.45,12.11,10.78,19.19,2.32,7.09,3.49,14.33,3.49,21.73,0,8.67-1.27,16.71-3.8,24.1-2.54,7.4-6.34,13.8-11.42,19.19-5.07,5.39-11.31,9.62-18.71,12.69-7.4,3.07-15.86,4.6-25.37,4.6h-19.66v50.75h19.98c17.76,0,33.62-2.96,47.57-8.88,13.96-5.92,25.74-13.95,35.36-24.1,9.62-10.15,17.02-21.93,22.2-35.36,5.18-13.42,7.77-27.75,7.77-42.97,0-12.47-2.06-25.26-6.18-38.38Z"/>
  <rect class="cls-2" y="120.52" width="50.75" height="50.75"/>
  <g>
    <path class="cls-1" d="m226.16,160.72l8.46,40.2h3.8l10.05-40.2h19.37l-16.67,61.29h-29.42l-15.93-61.29h20.35Z"/>
    <path class="cls-1" d="m309.26,175.56c1.47-1.14,2.68-2.27,3.62-3.37.94-1.1,1.72-2.21,2.33-3.31.61-1.1,1.04-2.21,1.29-3.31.24-1.1.37-2.23.37-3.37,0-2.78-.9-4.96-2.7-6.56-1.8-1.59-4.25-2.39-7.35-2.39-1.8,0-3.41.27-4.84.8-1.43.53-2.68,1.41-3.74,2.64-1.06,1.23-1.88,2.8-2.45,4.72-.57,1.92-.86,4.27-.86,7.05h-20.23c0-6.05.82-11.22,2.45-15.51,1.63-4.29,3.88-7.8,6.74-10.54,2.86-2.74,6.27-4.74,10.23-6.01,3.96-1.27,8.27-1.9,12.93-1.9,5.23,0,9.78.7,13.67,2.08,3.88,1.39,7.11,3.31,9.68,5.76s4.49,5.29,5.76,8.52c1.27,3.23,1.9,6.68,1.9,10.36,0,2.53-.27,4.92-.8,7.17-.53,2.25-1.37,4.39-2.51,6.43-1.15,2.04-2.62,4-4.41,5.88-1.8,1.88-3.96,3.76-6.5,5.64l-18.75,13.85v2.21h31.99v19.61h-62.76v-18.26l34.93-28.19Z"/>
  </g>
</svg>